HIERARCHY
ROOT Hips
{
    OFFSET 0.000000 0.000000 0.000000
    CHANNELS 6 Xposition Yposition Zposition Zrotation Xrotation Yrotation
    JOINT Spine
    {
        OFFSET -0.000000 7.236184 0.000000
        CHANNELS 3 Zrotation Xrotation Yrotation
        JOINT Spine1
        {
            OFFSET -0.000000 20.420147 0.000000
            CHANNELS 3 Zrotation Xrotation Yrotation
            JOINT Neck
            {
                OFFSET -0.000000 20.336288 1.848754
                CHANNELS 3 Zrotation Xrotation Yrotation
                JOINT Head
                {
                    OFFSET -0.000000 12.354461 -1.764923
                    CHANNELS 3 Zrotation Xrotation Yrotation
                    End Site
                    {
                        OFFSET -0.000000 22.061537 0.000000
                    }
                }
            }
            JOINT LeftShoulder
            {
                OFFSET 3.573296 18.396038 -0.314103
                CHANNELS 3 Zrotation Xrotation Yrotation
                JOINT LeftArm
                {
                    OFFSET 10.880760 0.000000 0.000000
                    CHANNELS 3 Zrotation Xrotation Yrotation
                    JOINT LeftForeArm
                    {
                        OFFSET 27.185530 0.000000 0.000000
                        CHANNELS 3 Zrotation Xrotation Yrotation
                        JOINT LeftHand
                        {
                            OFFSET 27.825975 0.000000 0.000000
                            CHANNELS 3 Zrotation Xrotation Yrotation
                            End Site
                            {
                                OFFSET 13.236923 0.000000 0.000000
                            }
                        }
                    }
                }
            }
            JOINT RightShoulder
            {
                OFFSET -3.474926 18.396038 -0.314103
                CHANNELS 3 Zrotation Xrotation Yrotation
                JOINT RightArm
                {
                    OFFSET -10.880760 0.000000 0.000000
                    CHANNELS 3 Zrotation Xrotation Yrotation
                    JOINT RightForeArm
                    {
                        OFFSET -27.185530 0.000000 0.000000
                        CHANNELS 3 Zrotation Xrotation Yrotation
                        JOINT RightHand
                        {
                            OFFSET -27.825975 0.000000 0.000000
                            CHANNELS 3 Zrotation Xrotation Yrotation
                            End Site
                            {
                                OFFSET -13.236923 0.000000 0.000000
                            }
                        }
                    }
                }
            }
        }
    }
    JOINT LeftUpLeg
    {
        OFFSET 8.824615 0.000000 0.000000
        CHANNELS 3 Zrotation Xrotation Yrotation
        JOINT LeftLeg
        {
            OFFSET -0.000000 -35.111282 0.000000
            CHANNELS 3 Zrotation Xrotation Yrotation
            JOINT LeftFoot
            {
                OFFSET -0.000000 -42.324711 0.000000
                CHANNELS 3 Zrotation Xrotation Yrotation
                JOINT LeftToeBase
                {
                    OFFSET -0.000000 -5.735999 13.236923
                    CHANNELS 3 Zrotation Xrotation Yrotation
                    End Site
                    {
                        OFFSET -0.000000 0.000000 3.529846
                    }
                }
            }
        }
    }
    JOINT RightUpLeg
    {
        OFFSET -8.824615 0.000000 0.000000
        CHANNELS 3 Zrotation Xrotation Yrotation
        JOINT RightLeg
        {
            OFFSET -0.000000 -35.111282 0.000000
            CHANNELS 3 Zrotation Xrotation Yrotation
            JOINT RightFoot
            {
                OFFSET -0.000000 -42.324711 0.000000
                CHANNELS 3 Zrotation Xrotation Yrotation
                JOINT RightToeBase
                {
                    OFFSET -0.000000 -5.735999 13.236923
                    CHANNELS 3 Zrotation Xrotation Yrotation
                    End Site
                    {
                        OFFSET -0.000000 0.000000 3.529846
                    }
                }
            }
        }
    }
}
MOTION
Frames:    4
Frame Time:    0.008333
4.090187    79.668121    107.864761    3.533309    -16.710489    -171.763031    -0.754902    -7.920725    1.810023    4.554291    4.655492    1.677049    2.330044    -2.249331    -4.580316    4.161664    -5.033000    -4.388131    0.075747    15.774432    0.406761    -53.910721    28.136271    -26.737247    -0.904197    -2.536293    -6.358999    15.658633    -2.706496    -0.873731    6.427545    18.091784    -7.244646    45.763283    38.584267    26.655979    -4.937919    -9.865728    26.231857    -12.900848    -8.482060    -2.213552    8.267502    -37.404190    -2.108013    3.398391    37.783810    2.475505    -9.691329    -13.296253    -15.761704    0.005554    -1.831423    -0.006178    -19.021645    -17.301052    -8.453567    2.757616    15.252074    0.213363    17.055834    -6.782631    -8.246692    -0.637583    -1.770440    0.691298
3.766098    79.680183    107.869598    3.668223    -16.800081    -171.799118    -0.800887    -7.878481    1.779516    4.874405    4.588143    1.639265    2.502754    -2.310814    -4.529289    4.010690    -5.047994    -4.392967    0.156363    15.705009    0.310223    -53.837814    28.369934    -26.712757    -1.008304    -2.401600    -6.281257    15.626527    -2.573153    -0.848303    6.438929    18.090885    -7.311467    46.137802    37.782280    26.097197    -4.981799    -9.843962    26.317331    -12.974645    -8.453733    -2.133676    8.189907    -37.525536    -1.989063    3.448246    37.883530    2.309487    -9.575468    -13.459137    -15.665635    0.101370    -1.775543    -0.112732    -19.203995    -17.321665    -8.448475    2.786685    15.210610    0.095686    17.420601    -6.280895    -7.945503    -0.574529    -2.180616    0.623295
3.436149    79.714355    107.868919    3.793739    -16.895575    -171.864456    -0.845397    -7.841570    1.752551    5.185899    4.501172    1.606536    2.671616    -2.353146    -4.474285    3.850540    -5.044264    -4.395119    0.235621    15.639490    0.223023    -53.766140    28.609489    -26.672474    -1.107335    -2.295774    -6.241156    15.614114    -2.467398    -0.812504    6.453834    18.098940    -7.391330    46.539616    36.932896    25.552837    -5.015192    -9.816001    26.369390    -13.071549    -8.422068    -2.060026    8.140408    -37.594090    -1.842391    3.448433    37.899258    2.186086    -9.461680    -13.586443    -15.578608    0.198474    -1.719293    -0.220695    -19.395281    -17.339830    -8.406389    2.817801    15.168246    -0.028719    17.791119    -5.712335    -7.628304    -0.497476    -2.647102    0.540063
3.101021    79.771698    107.862350    3.907972    -16.993937    -171.962082    -0.885870    -7.807085    1.730909    5.483677    4.395431    1.580760    2.835701    -2.376482    -4.415390    3.682502    -5.018898    -4.394164    0.312468    15.578678    0.146849    -53.696301    28.849892    -26.615667    -1.198535    -2.217407    -6.239300    15.619863    -2.388244    -0.770128    6.473405    18.117069    -7.483253    46.965038    36.042580    25.026514    -5.040410    -9.786264    26.392130    -13.191041    -8.390637    -1.994928    8.119145    -37.607300    -1.676298    3.390594    37.833538    2.116291    -9.347808    -13.677556    -15.498137    0.294543    -1.663203    -0.327485    -19.597214    -17.363501    -8.321643    2.852813    15.151903    -0.154335    18.159796    -5.087219    -7.304042    -0.406823    -3.170763    0.441986
